<?xml version="1.0" encoding="UTF-8"?>
<!-- Created with Inkscape (http://www.inkscape.org/) -->
<svg width="413.92mm" height="279.05mm" version="1.1" viewBox="0 0 413.92 279.05" xmlns="http://www.w3.org/2000/svg">
 <defs>
  <filter id="filter16741" x="-.029143" y="-.044481" width="1.0583" height="1.089" color-interpolation-filters="sRGB">
   <feGaussianBlur stdDeviation="0.58263294"/>
  </filter>
  <filter id="filter7430" x="-.0041748" y="-.0073064" width="1.0083" height="1.0146" color-interpolation-filters="sRGB">
   <feGaussianBlur stdDeviation="0.58263294"/>
  </filter>
 </defs>
 <g transform="translate(55.651 -8.1512)">
  <g fill="#f5f2e8" filter="url(#filter7430)" stroke-width=".6734" aria-label="Lab of  Purcs">
   <path d="m-16.164 53.275v93.091h59.604v-15.257h-44.347v-77.834z"/>
   <path d="m42.524 114.04c0 18.489 13.576 33.616 32.065 33.616 8.1455 0 15.644-4.2667 19.911-9.5677v8.2748h15.257v-64.646h-15.257v8.0162c-4.2667-5.0424-11.766-9.3091-19.911-9.3091-18.489 0-32.065 15.127-32.065 33.616zm33.616-18.36c10.085 0 18.36 8.2748 18.36 18.36 0 10.085-8.2748 18.36-18.36 18.36s-18.36-8.2748-18.36-18.36c0-10.085 8.2748-18.36 18.36-18.36z"/>
   <path d="m118.02 146.37h15.257v-8.2748c4.2667 5.301 11.766 9.5677 19.911 9.5677 18.618 0 32.065-15.127 32.065-33.616 0-18.489-13.446-33.616-32.065-33.616-8.1455 0-15.644 4.2667-19.911 9.3091v-36.461h-15.257zm33.616-50.683c10.085 0 18.36 8.2748 18.36 18.36 0 10.085-8.2748 18.36-18.36 18.36-10.085 0-18.36-8.2748-18.36-18.36 0-10.085 8.2748-18.36 18.36-18.36z"/>
   <path d="m244.96 80.427c-18.489 0-33.616 14.998-33.616 33.616 0 18.489 15.127 33.616 33.616 33.616 18.618 0 33.616-15.127 33.616-33.616 0-18.618-14.998-33.616-33.616-33.616zm-18.36 33.616c0-10.085 8.2748-18.36 18.36-18.36 10.085 0 18.36 8.2748 18.36 18.36 0 10.085-8.2748 18.36-18.36 18.36-10.085 0-18.36-8.2748-18.36-18.36z"/>
   <path d="m287.62 96.976v49.39h15.257v-49.39h15.903v-15.257h-15.903v-2.4566c0-9.8263 4.2667-12.541 11.895-12.541h4.0081v-14.739h-5.301c-15.903 0-25.859 7.6283-25.859 26.246v3.4909h-10.861v15.257z"/>
   <path d="m-16.164 242.07h15.257v-29.22h23.531c17.196 0 29.867-13.576 29.867-31.935 0-18.36-12.671-31.935-29.867-31.935h-38.788zm36.849-77.834c10.214 0 16.679 6.4646 16.679 16.679 0 10.085-6.5939 16.679-16.808 16.679h-21.463v-33.358z"/>
   <path d="m56.876 177.43v38.917c0 16.42 10.343 27.022 25.341 27.022 7.6283 0 14.61-3.2323 19.394-8.2748v6.9818h15.257v-64.646h-15.257v34.909c0 10.085-6.8525 16.679-15.644 16.679-8.1455 0-13.834-5.1717-13.834-15.903v-35.685z"/>
   <path d="m140.39 242.07v-34.909c0-9.8263 8.0162-16.679 17.713-16.679 0.51718 0 1.1636 0 1.6808 0.1293v-14.481c-8.2748 0-14.998 3.4909-19.394 8.6626v-7.3697h-15.257v64.646z"/>
   <path d="m190.03 243.37c9.5677 0 18.23-4.0081 24.307-10.473l-10.731-10.861c-3.3616 3.7495-8.2748 6.0768-13.576 6.0768-10.085 0-18.36-8.2748-18.36-18.36s8.2748-18.36 18.36-18.36c5.301 0 10.214 2.3273 13.576 5.9475l10.731-10.731c-6.0768-6.4646-14.739-10.473-24.307-10.473-18.489 0-33.616 14.998-33.616 33.616 0 18.489 15.127 33.616 33.616 33.616z"/>
   <path d="m214.33 232.89c7.7576 7.1111 16.409 10.473 27.141 10.473 15.644 0 27.152-8.5333 27.152-20.17 0-13.964-11.507-18.489-24.307-21.463-6.9818-1.6808-13.446-3.103-13.446-6.5939 0-2.8444 3.2323-5.1717 9.9556-5.1717 6.2061 0 12.671 1.9394 17.325 5.9475l8.404-10.343c-6.3354-5.6889-15.644-9.4384-25.729-9.4384-14.61 0-25.341 7.8869-25.341 18.877 0 13.834 14.352 16.937 24.954 19.911 4.7838 1.2929 12.929 2.9737 12.929 8.404 0 3.4909-5.0424 6.2061-11.507 6.2061-7.2404 0-13.225-2.7359-18.268-7.1319z"/>
  </g>
  <rect x="-44.252" y="19.55" width="391.12" height="256.25" fill="none" filter="url(#filter16741)" stroke="#f5f2e8" stroke-linecap="round" stroke-linejoin="round" stroke-width="20"/>
 </g>
</svg>
