<?xml version="1.0" encoding="UTF-8" standalone="no"?>
<!-- Created with Inkscape (http://www.inkscape.org/) -->

<svg
   width="112.25mm"
   height="112.25mm"
   version="1.1"
   viewBox="0 0 112.25 112.25"
   id="svg56"
   sodipodi:docname="cpp.svg"
   inkscape:version="1.2.1 (9c6d41e410, 2022-07-14)"
   xmlns:inkscape="http://www.inkscape.org/namespaces/inkscape"
   xmlns:sodipodi="http://sodipodi.sourceforge.net/DTD/sodipodi-0.dtd"
   xmlns="http://www.w3.org/2000/svg"
   xmlns:svg="http://www.w3.org/2000/svg">
  <sodipodi:namedview
     id="namedview58"
     pagecolor="#505050"
     bordercolor="#eeeeee"
     borderopacity="1"
     inkscape:showpageshadow="0"
     inkscape:pageopacity="0"
     inkscape:pagecheckerboard="0"
     inkscape:deskcolor="#505050"
     inkscape:document-units="mm"
     showgrid="false"
     inkscape:zoom="2.4820156"
     inkscape:cx="244.5593"
     inkscape:cy="244.76075"
     inkscape:window-width="1450"
     inkscape:window-height="1243"
     inkscape:window-x="-127"
     inkscape:window-y="282"
     inkscape:window-maximized="0"
     inkscape:current-layer="svg56" />
  <defs
     id="defs22">
    <clipPath
       id="clipPath701-4-8">
      <path
         d="m152.6-270.73 13.229-13.229h-26.458l-13.229 13.229v26.458l13.229 13.229h26.458l13.229-13.229v-26.458l-13.229 13.229v13.229h-26.458v-26.458z"
         display="none"
         fill="#fff"
         style="paint-order:markers fill stroke"
         id="path2" />
      <path
         class="powerclip"
         d="m107.92-302.19h89.375v89.375h-89.375zm44.687 31.458 13.229-13.229h-26.458l-13.229 13.229v26.458l13.229 13.229h26.458l13.229-13.229v-26.458l-13.229 13.229v13.229h-26.458v-26.458z"
         fill="#fff"
         style="paint-order:markers fill stroke"
         id="path4" />
    </clipPath>
    <clipPath
       id="clipPath693-0-7">
      <path
         d="m152.6-270.73 13.229-13.229h-26.458l-13.229 13.229v26.458l13.229 13.229h26.458l13.229-13.229v-26.458l-13.229 13.229v13.229h-26.458v-26.458z"
         display="none"
         fill="#fff"
         style="paint-order:markers fill stroke"
         id="path7" />
      <path
         class="powerclip"
         d="m107.92-302.19h89.375v89.375h-89.375zm44.687 31.458 13.229-13.229h-26.458l-13.229 13.229v26.458l13.229 13.229h26.458l13.229-13.229v-26.458l-13.229 13.229v13.229h-26.458v-26.458z"
         fill="#fff"
         style="paint-order:markers fill stroke"
         id="path9" />
    </clipPath>
    <clipPath
       id="clipPath685-4-3">
      <path
         d="m152.6-270.73 13.229-13.229h-26.458l-13.229 13.229v26.458l13.229 13.229h26.458l13.229-13.229v-26.458l-13.229 13.229v13.229h-26.458v-26.458z"
         display="none"
         fill="#fff"
         style="paint-order:markers fill stroke"
         id="path12" />
      <path
         class="powerclip"
         d="m107.92-302.19h89.375v89.375h-89.375zm44.687 31.458 13.229-13.229h-26.458l-13.229 13.229v26.458l13.229 13.229h26.458l13.229-13.229v-26.458l-13.229 13.229v13.229h-26.458v-26.458z"
         fill="#fff"
         style="paint-order:markers fill stroke"
         id="path14" />
    </clipPath>
    <clipPath
       id="clipPath677-0-8">
      <path
         d="m152.6-270.73 13.229-13.229h-26.458l-13.229 13.229v26.458l13.229 13.229h26.458l13.229-13.229v-26.458l-13.229 13.229v13.229h-26.458v-26.458z"
         display="none"
         fill="#fff"
         style="paint-order:markers fill stroke"
         id="path17" />
      <path
         class="powerclip"
         d="m107.92-302.19h89.375v89.375h-89.375zm44.687 31.458 13.229-13.229h-26.458l-13.229 13.229v26.458l13.229 13.229h26.458l13.229-13.229v-26.458l-13.229 13.229v13.229h-26.458v-26.458z"
         fill="#fff"
         style="paint-order:markers fill stroke"
         id="path19" />
    </clipPath>
  </defs>
  <g
     transform="rotate(45 28.06 67.751)"
     id="g54">
    <g
       transform="translate(-112.92 297.18)"
       id="g34">
      <path
         d="m152.6-217.81h-26.458l-13.229-13.229v-52.917l13.229-13.229h26.458z"
         clip-path="url(#clipPath701-4-8)"
         fill="#555"
         style="paint-order:markers fill stroke"
         id="path24" />
      <g
         id="g32">
        <path
           d="m152.6-257.5h39.688v-26.458l-13.229-13.229h-26.458z"
           clip-path="url(#clipPath693-0-7)"
           fill="#b0b0b0"
           style="paint-order:markers fill stroke"
           id="path26" />
        <path
           d="m179.06-217.81h-26.458v-39.688h39.687v26.458z"
           clip-path="url(#clipPath685-4-3)"
           fill="#757575"
           style="paint-order:markers fill stroke"
           id="path28" />
        <path
           d="m152.6-217.81h-26.458l-13.229-13.229v-52.917l13.229-13.229h26.458z"
           clip-path="url(#clipPath677-0-8)"
           fill="#fff"
           style="paint-order:markers fill stroke"
           id="path30" />
      </g>
    </g>
    <g
       fill="#fff"
       id="g40">
      <path
         d="m52.917 13.229 13.229 13.229"
         color="#000000"
         stroke-width="4"
         style="paint-order:markers fill stroke"
         id="path36" />
      <path
         d="m54.33 11.814-2.8281 2.8281 13.23 13.23 2.8281-2.8281z"
         color="#000000"
         style="paint-order:markers fill stroke"
         id="path38" />
    </g>
    <g
       fill="#fff"
       id="g46">
      <path
         d="m66.146 0 13.229 13.229"
         color="#000000"
         stroke-width="4"
         style="paint-order:markers fill stroke"
         id="path42" />
      <path
         d="m67.561-1.4141-2.8281 2.8281 13.229 13.229 2.8281-2.8281z"
         color="#000000"
         style="paint-order:markers fill stroke"
         id="path44" />
    </g>
    <g
       fill="#fff"
       id="g52">
      <path
         d="m52.917 26.458 26.458-26.458"
         color="#000000"
         stroke-width="4"
         style="-inkscape-stroke:none;paint-order:markers fill stroke"
         id="path48" />
      <path
         d="m77.961-1.4141-26.459 26.459 2.8281 2.8281 26.459-26.459z"
         color="#000000"
         style="-inkscape-stroke:none;paint-order:markers fill stroke"
         id="path50" />
    </g>
  </g>
</svg>
