<?xml version="1.0" encoding="UTF-8"?>
<!-- Created with Inkscape (http://www.inkscape.org/) -->
<svg width="112.25mm" height="112.25mm" version="1.1" viewBox="0 0 112.25 112.25" xmlns="http://www.w3.org/2000/svg">
 <g transform="rotate(45 -260.98 -182.94)">
  <path d="m132.29-198.44h-26.458l-13.229-13.229v-52.917l13.229-13.229h26.458l13.229 13.229v13.229l-26.458 26.458v13.229z" fill="#6e6e6e" style="paint-order:markers fill stroke"/>
  <path d="m132.29-277.81h26.458l13.229 13.229v52.917l-13.229 13.229h-26.458l-13.229-13.229v-13.229l26.458-26.458v-13.229z" fill="#fff" style="paint-order:markers fill stroke"/>
  <path d="m171.98-240.12c-0.5304 8e-5 -1.039 0.21085-1.4141 0.58594l-26.459 26.459c-0.78084 0.78102-0.78084 2.0471 0 2.8281 0.78102 0.78084 2.0471 0.78084 2.8281 0l25.037-25.037c8e-3 -2.8362 8e-3 -2.8362 8e-3 -4.8362z" color="#000000" stroke-linecap="round" stroke-linejoin="round" style="paint-order:markers fill stroke"/>
  <path d="m119.06-266.58c-0.5304 8e-5 -1.039 0.21084-1.4141 0.58593l-25.041 25.041c-4e-3 2.8321-4e-3 2.8321-2e-3 4.8318 0.51109-5.3e-4 1.022-0.19574 1.412-0.58564l26.459-26.459c0.78084-0.78102 0.78084-2.0471 0-2.8281-0.37501-0.37509-0.88366-0.58585-1.4141-0.58593z" color="#000000" stroke-linecap="round" stroke-linejoin="round" style="paint-order:markers fill stroke"/>
 </g>
</svg>
